<mxfile host="65bd71144e">
    <diagram id="qwehdXlSWHSyS5KQdYHS" name="Page-1">
        <mxGraphModel dx="746" dy="576" grid="1" gridSize="10" guides="1" tooltips="1" connect="1" arrows="1" fold="1" page="1" pageScale="1" pageWidth="850" pageHeight="1100" math="0" shadow="0">
            <root>
                <mxCell id="0"/>
                <mxCell id="1" parent="0"/>
                <mxCell id="2" value="" style="html=1;labelBorderColor=default;align=center;verticalAlign=middle;whiteSpace=wrap;strokeColor=#FFFFFF;" vertex="1" parent="1">
                    <mxGeometry x="200" y="100" width="360" height="100" as="geometry"/>
                </mxCell>
                <mxCell id="12" value="Kijk welke optie geselecteerd is" style="triangle;whiteSpace=wrap;html=1;direction=south;spacingTop=-64;" vertex="1" parent="1">
                    <mxGeometry x="200" y="100" width="360" height="100" as="geometry"/>
                </mxCell>
                <mxCell id="14" value="Aanhef=&quot;'" style="rounded=0;whiteSpace=wrap;html=1;" vertex="1" parent="1">
                    <mxGeometry x="199" y="10" width="361" height="90" as="geometry"/>
                </mxCell>
                <mxCell id="15" value="Optie 'Dhr" style="text;strokeColor=none;align=center;fillColor=none;html=1;verticalAlign=middle;whiteSpace=wrap;rounded=0;labelBorderColor=none;" vertex="1" parent="1">
                    <mxGeometry x="210" y="150" width="60" height="30" as="geometry"/>
                </mxCell>
                <mxCell id="16" value="Optie 'Mvr'" style="text;strokeColor=none;align=center;fillColor=none;html=1;verticalAlign=middle;whiteSpace=wrap;rounded=0;labelBorderColor=none;" vertex="1" parent="1">
                    <mxGeometry x="470" y="160" width="60" height="30" as="geometry"/>
                </mxCell>
                <mxCell id="17" value="Maak gebruik van deze selectie&lt;br&gt;bij de Return" style="rounded=0;whiteSpace=wrap;html=1;labelBorderColor=none;strokeColor=#FFFFFF;" vertex="1" parent="1">
                    <mxGeometry x="199" y="200" width="181" height="60" as="geometry"/>
                </mxCell>
                <mxCell id="18" value="Maak gebruik van deze selectie&lt;br&gt;bij de Return" style="rounded=0;whiteSpace=wrap;html=1;labelBorderColor=none;strokeColor=#FFFFFF;" vertex="1" parent="1">
                    <mxGeometry x="380" y="200" width="180" height="60" as="geometry"/>
                </mxCell>
                <mxCell id="19" value="" style="rounded=0;whiteSpace=wrap;html=1;labelBorderColor=default;strokeColor=#FFFFFF;" vertex="1" parent="1">
                    <mxGeometry x="199" y="260" width="361" height="100" as="geometry"/>
                </mxCell>
                <mxCell id="20" value="&lt;font style=&quot;font-size: 12px;&quot;&gt;Controleer of veld&lt;/font&gt;&amp;nbsp;'Naam' niet leeg is&amp;nbsp;&lt;br&gt;en geen cijfers bevat." style="triangle;whiteSpace=wrap;html=1;labelBorderColor=none;strokeColor=#FFFFFF;direction=south;spacingTop=-57;" vertex="1" parent="1">
                    <mxGeometry x="199" y="260" width="360" height="100" as="geometry"/>
                </mxCell>
                <mxCell id="21" value="indien waardes voldaan" style="text;strokeColor=none;align=center;fillColor=none;html=1;verticalAlign=middle;whiteSpace=wrap;rounded=0;labelBorderColor=none;fontSize=12;" vertex="1" parent="1">
                    <mxGeometry x="220" y="320" width="60" height="30" as="geometry"/>
                </mxCell>
                <mxCell id="22" value="Indien waardes niet voldaan" style="text;strokeColor=none;align=center;fillColor=none;html=1;verticalAlign=middle;whiteSpace=wrap;rounded=0;labelBorderColor=none;fontSize=12;" vertex="1" parent="1">
                    <mxGeometry x="490" y="310" width="60" height="30" as="geometry"/>
                </mxCell>
                <mxCell id="23" value="Door naar het volgende veld" style="rounded=0;whiteSpace=wrap;html=1;labelBorderColor=none;strokeColor=#FFFFFF;fontSize=12;" vertex="1" parent="1">
                    <mxGeometry x="199" y="360" width="181" height="60" as="geometry"/>
                </mxCell>
                <mxCell id="24" value="Laat een error zien bij het veld 'Naam'" style="rounded=0;whiteSpace=wrap;html=1;labelBorderColor=none;strokeColor=#FFFFFF;fontSize=12;" vertex="1" parent="1">
                    <mxGeometry x="380" y="360" width="180" height="60" as="geometry"/>
                </mxCell>
                <mxCell id="25" value="" style="rounded=0;whiteSpace=wrap;html=1;labelBorderColor=default;strokeColor=#FFFFFF;fontSize=12;" vertex="1" parent="1">
                    <mxGeometry x="199" y="420" width="361" height="130" as="geometry"/>
                </mxCell>
                <mxCell id="26" value="Valideer e-mail adres" style="triangle;whiteSpace=wrap;html=1;labelBorderColor=none;strokeColor=#FFFFFF;fontSize=12;direction=south;spacingTop=-59;" vertex="1" parent="1">
                    <mxGeometry x="200" y="420" width="360" height="130" as="geometry"/>
                </mxCell>
                <mxCell id="27" value="Als het een valide mailadres is" style="text;strokeColor=none;align=center;fillColor=none;html=1;verticalAlign=middle;whiteSpace=wrap;rounded=0;labelBorderColor=none;fontSize=12;" vertex="1" parent="1">
                    <mxGeometry x="210" y="490" width="60" height="30" as="geometry"/>
                </mxCell>
                <mxCell id="30" value="Indien het een niet&amp;nbsp;&lt;br&gt;valide e-mailadres is" style="text;strokeColor=none;align=center;fillColor=none;html=1;verticalAlign=middle;whiteSpace=wrap;rounded=0;labelBorderColor=none;fontSize=12;" vertex="1" parent="1">
                    <mxGeometry x="490" y="490" width="60" height="30" as="geometry"/>
                </mxCell>
                <mxCell id="31" value="Controleer het volgend veld" style="rounded=0;whiteSpace=wrap;html=1;labelBorderColor=none;strokeColor=#FFFFFF;fontSize=12;" vertex="1" parent="1">
                    <mxGeometry x="200" y="550" width="180" height="60" as="geometry"/>
                </mxCell>
                <mxCell id="32" value="Laat een error code zien bij het veld 'E-Mail'" style="rounded=0;whiteSpace=wrap;html=1;labelBorderColor=none;strokeColor=#FFFFFF;fontSize=12;" vertex="1" parent="1">
                    <mxGeometry x="380" y="550" width="180" height="60" as="geometry"/>
                </mxCell>
                <mxCell id="34" value="" style="rounded=0;whiteSpace=wrap;html=1;labelBorderColor=default;strokeColor=#FFFFFF;fontSize=12;" vertex="1" parent="1">
                    <mxGeometry x="199" y="610" width="361" height="100" as="geometry"/>
                </mxCell>
                <mxCell id="35" value="Valideer telefoon nummer" style="triangle;whiteSpace=wrap;labelBorderColor=none;strokeColor=#FFFFFF;fontSize=12;direction=south;spacingTop=-30;" vertex="1" parent="1">
                    <mxGeometry x="200" y="610" width="360" height="100" as="geometry"/>
                </mxCell>
                <mxCell id="36" value="Bevat 10 getallen" style="text;strokeColor=none;align=center;fillColor=none;html=1;verticalAlign=middle;whiteSpace=wrap;rounded=0;labelBorderColor=none;fontSize=12;" vertex="1" parent="1">
                    <mxGeometry x="220" y="670" width="60" height="30" as="geometry"/>
                </mxCell>
                <mxCell id="37" value="Waarde niet gelijk aan 10 getallen" style="text;strokeColor=none;align=center;fillColor=none;html=1;verticalAlign=middle;whiteSpace=wrap;rounded=0;labelBorderColor=none;fontSize=12;" vertex="1" parent="1">
                    <mxGeometry x="490" y="660" width="60" height="30" as="geometry"/>
                </mxCell>
                <mxCell id="39" value="Door naar het volgende veld" style="rounded=0;whiteSpace=wrap;html=1;labelBorderColor=none;strokeColor=#FFFFFF;fontSize=12;" vertex="1" parent="1">
                    <mxGeometry x="199" y="710" width="181" height="60" as="geometry"/>
                </mxCell>
                <mxCell id="40" value="Geef error bij het veld 'Telefoonnummer'" style="rounded=0;whiteSpace=wrap;html=1;labelBorderColor=none;strokeColor=#FFFFFF;fontSize=12;" vertex="1" parent="1">
                    <mxGeometry x="380" y="710" width="180" height="60" as="geometry"/>
                </mxCell>
                <mxCell id="41" value="" style="rounded=0;whiteSpace=wrap;html=1;labelBorderColor=default;strokeColor=#FFFFFF;fontSize=12;" vertex="1" parent="1">
                    <mxGeometry x="200" y="770" width="360" height="70" as="geometry"/>
                </mxCell>
                <mxCell id="42" value="Controleer selectie 'fav_contact'" style="triangle;whiteSpace=wrap;html=1;labelBorderColor=none;strokeColor=#FFFFFF;fontSize=12;direction=south;spacingTop=-30;" vertex="1" parent="1">
                    <mxGeometry x="200" y="770" width="360" height="70" as="geometry"/>
                </mxCell>
                <mxCell id="43" value="Telefoonnummer&lt;br&gt;" style="text;strokeColor=none;align=center;fillColor=none;html=1;verticalAlign=middle;whiteSpace=wrap;rounded=0;labelBorderColor=none;fontSize=12;" vertex="1" parent="1">
                    <mxGeometry x="220" y="810" width="60" height="30" as="geometry"/>
                </mxCell>
                <mxCell id="44" value="E-mail" style="text;strokeColor=none;align=center;fillColor=none;html=1;verticalAlign=middle;whiteSpace=wrap;rounded=0;labelBorderColor=none;fontSize=12;" vertex="1" parent="1">
                    <mxGeometry x="470" y="810" width="60" height="30" as="geometry"/>
                </mxCell>
                <mxCell id="45" value="Gebruik dit bij het maken&lt;br&gt;van het text bij het bedankje" style="rounded=0;whiteSpace=wrap;html=1;labelBorderColor=none;strokeColor=#FFFFFF;fontSize=12;" vertex="1" parent="1">
                    <mxGeometry x="199" y="840" width="181" height="80" as="geometry"/>
                </mxCell>
                <mxCell id="46" value="Gebruik dit bij het maken&lt;br&gt;van het text bij het bedankje" style="rounded=0;whiteSpace=wrap;html=1;labelBorderColor=none;strokeColor=#FFFFFF;fontSize=12;" vertex="1" parent="1">
                    <mxGeometry x="380" y="840" width="181" height="80" as="geometry"/>
                </mxCell>
                <mxCell id="47" value="Controleer waarde textarea" style="rounded=0;whiteSpace=wrap;html=1;labelBorderColor=none;strokeColor=#FFFFFF;fontSize=12;" vertex="1" parent="1">
                    <mxGeometry x="200" y="920" width="360" height="80" as="geometry"/>
                </mxCell>
                <mxCell id="48" value="" style="rounded=0;whiteSpace=wrap;html=1;labelBorderColor=none;strokeColor=#FFFFFF;fontSize=12;" vertex="1" parent="1">
                    <mxGeometry x="200" y="1000" width="360" height="90" as="geometry"/>
                </mxCell>
            </root>
        </mxGraphModel>
    </diagram>
</mxfile>